HIERARCHY
ROOT Hips
{
  OFFSET 0 0 0
  CHANNELS 6 Xposition Yposition Zposition Zrotation Yrotation Xrotation
  JOINT LeftThigh
  {
    OFFSET 8.409438 0 -5.917753
    CHANNELS 3 Zrotation Yrotation Xrotation
    JOINT LeftLeg
    {
      OFFSET 0 0 -42.358652
      CHANNELS 3 Zrotation Yrotation Xrotation
      JOINT LeftFoot
      {
        OFFSET 0 0 -39.357303
        CHANNELS 3 Zrotation Yrotation Xrotation
      }
    }
  }
  JOINT RightThigh
  {
    OFFSET -8.409438 0 -5.917753
    CHANNELS 3 Zrotation Yrotation Xrotation
    JOINT RightLeg
    {
      OFFSET 0 0 -42.358652
      CHANNELS 3 Zrotation Yrotation Xrotation
      JOINT RightFoot
      {
        OFFSET 0 0 -39.357303
        CHANNELS 3 Zrotation Yrotation Xrotation
      }
    }
  }
  JOINT SpineLow
  {
    OFFSET 0 0 4.719101
    CHANNELS 3 Zrotation Yrotation Xrotation
    JOINT SpineMid
    {
      OFFSET 0 0 12.899191
      CHANNELS 3 Zrotation Yrotation Xrotation
      JOINT Chest
      {
        OFFSET 0 0 12.899191
        CHANNELS 3 Zrotation Yrotation Xrotation
        JOINT LeftShoulder
        {
          OFFSET 7.550562 1.41573 9.438202
          CHANNELS 3 Zrotation Yrotation Xrotation
          JOINT LeftArm
          {
            OFFSET 9.155056 0 4.247191
            CHANNELS 3 Zrotation Yrotation Xrotation
            JOINT LeftForearm
            {
              OFFSET 0 0 25.771955
              CHANNELS 3 Zrotation Yrotation Xrotation
              JOINT LeftHand
              {
                OFFSET 0 0 25.197169
                CHANNELS 3 Zrotation Yrotation Xrotation
              }
            }
          }
        }
        JOINT RightShoulder
        {
          OFFSET -7.550562 1.41573 9.438202
          CHANNELS 3 Zrotation Yrotation Xrotation
          JOINT RightArm
          {
            OFFSET -9.155056 0 4.247191
            CHANNELS 3 Zrotation Yrotation Xrotation
            JOINT RightForearm
            {
              OFFSET 0 0 -25.771955
              CHANNELS 3 Zrotation Yrotation Xrotation
              JOINT RightHand
              {
                OFFSET 0 0 -25.197169
                CHANNELS 3 Zrotation Yrotation Xrotation
              }
            }
          }
        }
        JOINT Neck
        {
          OFFSET 0 0 15.101124
          CHANNELS 3 Zrotation Yrotation Xrotation
          JOINT Head
          {
            OFFSET 0 0 11.325843
            CHANNELS 3 Zrotation Yrotation Xrotation
            End Site
            {
              OFFSET 0 0 14.157303
            }
          }
        }
      }
    }
  }
}
MOTION
Frames: 10
Frame Time: 0.0
0.0  89.887642  0.0  6.567323  31.133226  -91.135831  -12.836377  -6.67441  -9.151397  -10.159184  4.950178  20.614916  -2.219126  0.038537  -0.297387  -21.48413  16.599078  5.755752  -26.614218  6.694635  4.751891  1.132952  1.675291  -1.089834  0.244037  -0.58884  0.817807  0.647169  -1.617557  2.229834  0.647169  -1.617557  2.229833  -23.944113  13.801695  -8.732566  116.016491  50.989633  -146.197899  15.217742  4.983128  15.132528  99.209642  -6.255848  17.286082  -0.009958  -5.882902  9.582103  98.378531  28.598549  16.782523  -1.684596  -23.346187  -80.872899  47.130439  0.788585  -3.005336  -23.04661  6.495948  15.520984  -17.445124  4.297177  11.894244  
0.0  89.887642  0.0  6.410886  32.796649  -91.121591  -12.597905  -6.674083  -8.896793  -10.642496  4.525235  19.973836  -2.530758  -0.093233  -0.324803  -21.787234  16.11796  6.455487  -27.08113  6.985144  4.424217  0.921371  1.847244  -1.114384  0.645738  -0.759774  1.02602  1.732995  -2.103567  2.784867  1.732995  -2.103568  2.784867  -24.535589  12.438749  -10.220093  118.829611  50.965093  -143.486961  17.366635  4.99394  19.565895  96.837622  -6.005918  14.501152  -0.550795  -5.69188  8.81079  95.063189  28.454027  16.056635  0.836213  -23.610389  -84.875648  47.964355  0.488401  -1.916356  -25.414872  6.164285  14.684316  -19.204261  4.023382  11.283103  
0.0  89.887642  0.0  6.183224  33.746638  -91.113624  -12.450421  -6.831012  -8.724597  -10.735158  4.228135  19.520536  -3.210094  -0.417744  -0.66017  -22.381275  15.73258  6.663366  -27.19052  7.152852  4.283338  0.958623  2.076107  -1.108788  1.045693  -0.932575  1.079855  2.81732  -2.594673  2.912082  2.81732  -2.594673  2.912082  -24.539392  11.411601  -10.782038  120.226719  51.02227  -141.663843  18.434798  4.280791  23.41982  95.821653  -5.521421  14.167333  -0.892  -5.448938  9.300451  92.1229  28.665648  15.762733  3.919204  -23.901305  -89.020113  49.043105  0.463366  -0.926855  -27.392123  6.136723  14.331782  -20.682032  3.971932  11.041066  
0.0  89.887642  0.0  5.926016  33.946461  -91.119751  -12.214793  -7.056957  -8.521669  -10.580387  3.941715  19.170887  -3.379788  -0.491241  -0.678355  -23.102407  15.429185  6.515532  -27.013105  7.290377  4.225527  0.979027  2.222803  -1.105243  1.243178  -1.155879  1.14278  3.345012  -3.216484  3.065507  3.345012  -3.216484  3.065506  -22.608956  10.899062  -11.326437  119.481914  50.991429  -140.988183  17.987498  2.524535  26.11103  96.36281  -4.886995  15.511521  0.478911  -4.738141  10.172274  89.511815  29.03928  15.68795  7.053551  -23.693735  -92.498542  50.357777  0.876134  0.227038  -28.21515  6.452687  13.831351  -21.298145  4.213915  10.688844  
0.0  89.887642  0.0  5.643814  33.41867  -91.122829  -11.907806  -7.307937  -8.178227  -10.202431  3.666046  18.842349  -3.58001  -0.572278  -0.830567  -23.791873  15.15656  6.063017  -26.602006  7.431401  4.248091  1.177099  2.3249  -1.109659  1.652907  -1.38903  1.066852  4.460402  -3.86686  2.822535  4.460402  -3.86686  2.822535  -21.285722  10.667485  -11.074442  117.603471  50.558651  -141.208238  17.075178  -0.028214  28.175433  97.272359  -4.147092  17.028932  0.70052  -3.935346  12.050473  87.569908  29.625337  15.743725  8.989801  -22.883071  -94.776211  51.670133  1.254546  0.746974  -29.366722  6.997739  13.751643  -22.168642  4.602691  10.66817  
0.0  89.887642  0.0  5.328369  32.202822  -91.189748  -11.449237  -7.591785  -7.712389  -9.684938  3.472999  18.593163  -3.49014  -0.601726  -0.870113  -24.359196  14.939244  5.399008  -25.858007  7.532528  4.4096  1.406504  2.378958  -1.12794  2.089454  -1.558787  1.154233  5.642856  -4.35583  3.021526  5.642856  -4.35583  3.021526  -19.922812  9.472447  -11.907063  117.639524  48.869379  -140.910896  17.277778  -3.127101  30.599318  97.642109  -2.961092  18.271229  1.172641  -3.453705  12.920147  85.926456  30.243869  16.278194  10.090452  -21.576574  -96.300576  53.235689  1.488426  0.469153  -30.189368  7.032848  13.349806  -22.780278  4.63099  10.379139  
0.0  89.887642  0.0  4.932945  30.386178  -91.421152  -10.760933  -7.93363  -7.1622  -9.155751  3.413305  18.501934  -3.554216  -0.643221  -1.014059  -24.734424  14.748839  4.657042  -24.891397  7.620279  4.731528  1.742204  2.428877  -1.168587  2.565488  -1.665932  1.340619  6.92825  -4.688494  3.488249  6.928249  -4.688494  3.488249  -18.669407  7.46197  -13.207098  121.234175  45.633697  -139.541171  17.987878  -6.036452  33.777395  98.536637  -1.703835  19.445545  1.37703  -3.292508  13.089524  85.124654  30.890601  17.45835  10.083012  -19.745261  -97.613895  54.71321  1.688818  -0.254983  -30.742152  6.685775  12.921073  -23.18419  4.379512  10.048031  
0.0  89.887642  0.0  4.443619  28.157319  -91.849837  -9.922916  -8.341653  -6.532208  -8.670139  3.471597  18.609886  -3.429562  -0.643831  -1.010378  -24.962729  14.550972  3.806014  -23.842099  7.701229  5.344729  2.242971  2.456267  -1.217088  2.933964  -1.761947  1.512777  7.91955  -4.989465  3.92099  7.91955  -4.989465  3.92099  -16.839556  5.346514  -13.955931  126.262147  41.803978  -138.67882  17.54404  -9.003404  37.783133  99.441326  -0.386152  20.83862  1.897657  -3.166012  13.439953  84.957937  31.705523  19.215182  8.23628  -18.270544  -98.492105  56.982596  1.470395  -1.967255  -30.643919  6.416088  12.693683  -23.104071  4.189853  9.863026  
0.0  89.887642  0.0  3.941648  25.416187  -92.469656  -8.822867  -8.718103  -5.7842  -8.321172  3.619351  18.876093  -3.437137  -0.640439  -1.133173  -24.864731  14.38623  2.864626  -22.841586  7.86933  6.285658  2.859832  2.449601  -1.276781  3.362361  -1.665178  1.698805  9.08286  -4.775142  4.408688  9.08286  -4.775143  4.408687  -14.76334  2.242586  -13.701914  131.851687  38.110342  -138.317361  15.97065  -11.452484  42.856767  99.753959  1.243622  21.920442  1.666593  -4.280604  13.326993  85.034806  32.230344  21.159949  5.536212  -16.453647  -98.976531  59.881014  1.434776  -3.62567  -30.316018  5.526377  12.970871  -22.848927  3.512925  10.025129  
0.0  89.887642  0.0  3.589001  22.464305  -93.074566  -7.815717  -8.9887  -5.054411  -7.980241  3.899478  19.292  -3.255686  -0.644636  -1.109509  -24.748549  14.283452  1.700214  -21.890845  8.079839  7.465907  3.493403  2.501656  -1.299077  3.860878  -1.673706  1.877197  10.433171  -4.857957  4.856977  10.433171  -4.857957  4.856977  -12.937188  0.346718  -12.710644  136.711752  34.73401  -138.513805  13.151945  -13.444274  49.046696  100.359922  3.884319  23.947651  0.055009  -4.492703  13.181863  84.363421  32.595226  22.731888  2.824279  -14.165982  -99.340258  63.247274  2.219911  -4.166158  -30.236443  5.011397  13.06387  -22.782383  3.122301  10.06975  
